<?xml version="1.0" encoding="UTF-8" standalone="no"?>
<svg
   xmlns:dc="http://purl.org/dc/elements/1.1/"
   xmlns:cc="http://creativecommons.org/ns#"
   xmlns:rdf="http://www.w3.org/1999/02/22-rdf-syntax-ns#"
   xmlns:svg="http://www.w3.org/2000/svg"
   xmlns="http://www.w3.org/2000/svg"
   xmlns:sodipodi="http://sodipodi.sourceforge.net/DTD/sodipodi-0.dtd"
   xmlns:inkscape="http://www.inkscape.org/namespaces/inkscape"
   id="Ebene_1"
   data-name="Ebene 1"
   viewBox="0 0 1000 1000"
   version="1.1"
   sodipodi:docname="icon-blobfish-black.svg"
   inkscape:version="0.92.4 (5da689c313, 2019-01-14)">
  <metadata
     id="metadata867">
    <rdf:RDF>
      <cc:Work
         rdf:about="">
        <dc:format>image/svg+xml</dc:format>
        <dc:type
           rdf:resource="http://purl.org/dc/dcmitype/StillImage" />
        <dc:title>icon-blobfish-black</dc:title>
      </cc:Work>
    </rdf:RDF>
  </metadata>
  <sodipodi:namedview
     pagecolor="#ffffff"
     bordercolor="#666666"
     borderopacity="1"
     objecttolerance="10"
     gridtolerance="10"
     guidetolerance="10"
     inkscape:pageopacity="0"
     inkscape:pageshadow="2"
     inkscape:window-width="1920"
     inkscape:window-height="986"
     id="namedview865"
     showgrid="false"
     inkscape:zoom="0.763"
     inkscape:cx="500"
     inkscape:cy="580.75144"
     inkscape:window-x="-11"
     inkscape:window-y="-11"
     inkscape:window-maximized="1"
     inkscape:current-layer="Ebene_1"
     showguides="true"
     inkscape:guide-bbox="true">
    <sodipodi:guide
       position="1103.5387,48.492792"
       orientation="0,1"
       id="guide869"
       inkscape:locked="false" />
  </sodipodi:namedview>
  <defs
     id="defs844">
    <style
       id="style842">.cls-1{fill:#fff;}</style>
  </defs>
  <title
     id="title846">icon-blobfish-black</title>
  <path
     class="cls-1"
     d="M996.3,500.17h-3.7A492.84,492.84,0,1,1,848.25,151.68,491.26,491.26,0,0,1,992.6,500.17h7.4C1000,223.9,776-.06,499.76-.07S-.48,223.9-.48,500.17s224,500.24,500.24,500.24S1000,776.45,1000,500.17Z"
     id="path848"
     style="fill:#010101;fill-opacity:1" />
  <path
     class="cls-1"
     d="M205.22,568.59v0c-.05-.4-.46-4.57-.46-11.82,0-15.22,1.84-44,12.89-79.7s31.28-78.47,68.11-121.73c46.42-54.52,86.35-86.68,125.52-105.62A243.55,243.55,0,0,1,470.36,230c20.05-4,40.75-5.85,62.82-6.59,1,0,1.94,0,2.91,0,21.11,0,43.22,7.61,64.78,19.78,32.35,18.22,63.34,46.59,87.92,73.53,12.3,13.47,23,26.57,31.5,37.86a270.27,270.27,0,0,1,18.23,26.84c9.56,16.92,15.05,28.65,20,37.22a57.21,57.21,0,0,0,7.58,10.74,29.3,29.3,0,0,0,9.66,6.89c1.49.66,3.61,1.75,6.11,3.16a220.4,220.4,0,0,1,33.26,23.53A96.25,96.25,0,0,1,829,477.34a34.62,34.62,0,0,1,3.94,6.53,13.29,13.29,0,0,1,1.28,5.2,97.31,97.31,0,0,1-.9,11.22c-.82,6.63-2.07,14.47-3.12,22.5a191.2,191.2,0,0,0-1.9,23.84,60.59,60.59,0,0,0,1.4,14,22.78,22.78,0,0,0,5.6,11,53.49,53.49,0,0,0,7.71,6c5.6,3.74,13.05,8,21.12,12.61,12.1,6.82,25.6,14.18,36,20.65a110.33,110.33,0,0,1,12.49,8.74,21.13,21.13,0,0,1,3.17,3.16,5,5,0,0,1,.55.88l0,.09v0l.64-.17h-.66l0,.17.64-.17h.78l-1.32-.56a1.61,1.61,0,0,0-.12.56h1.44l-1.32-.56,1.12.48-.87-.87a1.37,1.37,0,0,0-.25.39l1.12.48-.87-.87h0c-2.45,2.47-4.74,5.57-7.69,8.91a59.57,59.57,0,0,1-19.06,15c-9,4.39-21.23,7.66-38.83,7.67-1.37,0-2.78,0-4.21-.06-9.21-.27-17.16-.39-24.1-.39-16.1,0-26.7.66-34.63,1.82A80.9,80.9,0,0,0,770,660.25c-.86.32-2,.82-3.67,1.5-6.06,2.55-18,7.67-34.94,14-50.79,18.83-146.26,48-259,47.95-80.52,0-134.34-4.44-172.85-11.59a303.2,303.2,0,0,1-47.76-12.54,224.23,224.23,0,0,1-33.63-15.36,165.68,165.68,0,0,1-22.33-14.58,103.63,103.63,0,0,1-9.48-8.46c-3.67-3.69-6-6.59-8.62-9a16.31,16.31,0,0,0-4.51-2.93,14.76,14.76,0,0,0-5.7-1.06,29.73,29.73,0,0,0-4.71.46c-2.9.5-6.14,1.32-9.6,2.26-5.18,1.42-10.87,3.13-16.36,4.47a67.53,67.53,0,0,1-15,2.29,20.26,20.26,0,0,1-4.23-.4,9.28,9.28,0,0,1-2.92-1.11,64.86,64.86,0,0,1-8.28-6.37,77.34,77.34,0,0,1-13.7-15.85,46.16,46.16,0,0,1-4.67-9.46,29.16,29.16,0,0,1-1.75-9.64,22.78,22.78,0,0,1,3-11.45,34.5,34.5,0,0,1,7.61-8.45c6.41-5.53,15.86-11.69,26.49-17.94,16-9.38,34.6-19,50.17-27.64,7.79-4.32,14.81-8.4,20.4-12.13a82.51,82.51,0,0,0,7.29-5.39,24.63,24.63,0,0,0,4.85-5.24l-6.24-4a14.38,14.38,0,0,1-2.28,2.57,70.3,70.3,0,0,1-9.28,6.89c-7,4.54-16.34,9.77-26.58,15.33-15.36,8.35-32.71,17.45-47.34,26.35A196.67,196.67,0,0,0,95,586.91a72.58,72.58,0,0,0-7.17,6.39,32.11,32.11,0,0,0-5,6.44,30.26,30.26,0,0,0-4,15.08,38.87,38.87,0,0,0,3.67,15.87,71.56,71.56,0,0,0,13.72,19.59,81.32,81.32,0,0,0,14.49,12.13,16.46,16.46,0,0,0,5.26,2.07,28.27,28.27,0,0,0,5.81.57,63.69,63.69,0,0,0,12.63-1.56c6.54-1.38,13.27-3.4,19.2-5.06,3-.82,5.72-1.55,8.1-2.07a30.27,30.27,0,0,1,5.72-.79,7.71,7.71,0,0,1,2.6.4,6.68,6.68,0,0,1,1.82,1,34.81,34.81,0,0,1,4.39,4.3,120.74,120.74,0,0,0,12.49,12.14,164.87,164.87,0,0,0,25.74,17.21,232.41,232.41,0,0,0,34.72,15.85c20.23,7.3,45.74,13.44,81.31,17.76s81.21,6.81,141.81,6.81c81.11,0,153.22-14.87,206.56-30.3,26.67-7.71,48.65-15.56,64.71-21.77,8-3.1,14.58-5.79,19.49-7.84l6.1-2.57c1.6-.67,2.78-1.16,3.4-1.39a73.6,73.6,0,0,1,16.63-4.33c7.38-1.08,17.66-1.74,33.56-1.74,6.85,0,14.74.12,23.88.38,1.51,0,3,.07,4.43.07a107.3,107.3,0,0,0,30.82-4A66.21,66.21,0,0,0,909.2,642a91.56,91.56,0,0,0,7.61-8.22c2.06-2.48,3.76-4.59,5.15-6h0a6.22,6.22,0,0,0,1.32-2,6,6,0,0,0,.47-2.33,6.71,6.71,0,0,0-.41-2.29,11.53,11.53,0,0,0-2.09-3.53,39.31,39.31,0,0,0-6.67-6,199.27,199.27,0,0,0-18.35-11.85c-10.67-6.27-22.91-12.92-33.37-18.91-5.23-3-10-5.82-13.91-8.33-1.94-1.25-3.67-2.43-5.09-3.49a30.92,30.92,0,0,1-3.3-2.75c-1.56-1.54-2.83-4-3.65-7.47a53.45,53.45,0,0,1-1.19-12.28c0-9.34,1.44-20.4,2.92-30.72.74-5.17,1.48-10.16,2.05-14.71a103.38,103.38,0,0,0,.95-12.13,21.43,21.43,0,0,0-2.44-9.32c-2.61-5.32-6.94-10.61-12.12-15.82a191.49,191.49,0,0,0-26.5-21.5c-4.48-3.07-8.75-5.79-12.49-8a98.09,98.09,0,0,0-9.33-5,21.69,21.69,0,0,1-7.26-5.18c-3.24-3.43-6.3-8.6-10.31-16.19s-9-17.5-16.23-30.35c-2.47-4.36-6.14-10.09-10.88-16.84C717.5,337.3,687.89,301.3,652.56,271c-17.67-15.14-36.77-28.85-56.45-38.83s-40-16.22-60-16.23q-1.58,0-3.15.06c-22.33.74-43.44,2.6-64,6.73-30.89,6.18-60.6,17.48-91.29,37.57s-62.36,48.94-97.49,90.2c-37.52,44.07-58.24,87.75-69.54,124.33s-13.22,66.08-13.22,81.89c0,8,.49,12.54.5,12.66l7.36-.81Z"
     id="path850"
     style="fill:#000000;fill-opacity:1" />
  <path
     class="cls-1"
     d="M389.18,369s-8.89,17-18.52,35.92c-4.81,9.45-9.81,19.36-14,27.85-2.08,4.24-4,8.13-5.52,11.44s-2.77,6-3.56,8a49.07,49.07,0,0,1-2.91,5.57c-2.44,4.2-6,9.77-9.93,16.12-5.91,9.54-12.7,20.88-18.05,32.41A125.19,125.19,0,0,0,310,523.59a60.11,60.11,0,0,0-2.69,16.69,34.16,34.16,0,0,0,1.19,9.25,26.19,26.19,0,0,0,4,8.31A90.08,90.08,0,0,0,330.82,576c11.62,8.88,26.78,17.17,44.7,23.26a190.5,190.5,0,0,0,61.18,10,201.62,201.62,0,0,0,31.83-2.55c37.08-6,78.37-13.71,111.51-28,16.56-7.16,31.13-16,42.07-27.18a72.43,72.43,0,0,0,13.38-18.71,65.21,65.21,0,0,0,6.33-22.65c.39-4,.57-7.78.57-11.34a84.79,84.79,0,0,0-5.31-30.45,133.63,133.63,0,0,0-8.35-17.55c-4.54-8.28-9.22-16.25-12.77-26s-6-21.46-6-37.26c0-5.05.25-10.52.81-16.48l-7.36-.69c-.59,6.17-.85,11.87-.85,17.17,0,14.74,2.08,26.38,5.25,36.19a120.94,120.94,0,0,0,8.37,19.5c4.58,8.74,9.33,16.35,12.86,24.87a76.79,76.79,0,0,1,6,30.74c0,3.31-.17,6.85-.53,10.64a57.69,57.69,0,0,1-5.62,20.1c-5.23,10.68-13.74,19.76-24.76,27.56-16.51,11.71-38.58,20.41-62.58,27.07s-49.91,11.33-74.14,15.21a193.87,193.87,0,0,1-30.66,2.46,179.81,179.81,0,0,1-75.05-16.06,140.65,140.65,0,0,1-26.34-15.65,82.72,82.72,0,0,1-16.81-16.62,18.74,18.74,0,0,1-2.84-6,26.7,26.7,0,0,1-.92-7.25c0-6.72,2-14.73,5.29-23,4.89-12.47,12.47-25.59,19.32-36.73,3.42-5.58,6.66-10.67,9.3-15,1.32-2.16,2.49-4.12,3.47-5.88a44.41,44.41,0,0,0,2.34-4.72c.68-1.72,1.87-4.37,3.39-7.62,5.34-11.37,14.83-30.14,23-46,4.07-7.94,7.8-15.17,10.52-20.41l3.22-6.21,1.19-2.28L389.18,369Z"
     id="path852"
     style="fill:#000000;fill-opacity:1" />
  <path
     class="cls-1"
     d="M308.1,431.35s-3-38.48,19.24-38.48,19.24,32.56,17.76,37-5.92,19.24-22.2,16.28S308.1,431.35,308.1,431.35Z"
     id="path854"
     style="fill:#000000;fill-opacity:1" />
  <path
     class="cls-1"
     d="M700.3,426.91s16.28,11.84,14.8,32.56-13.32,28.12-22.2,28.12-26.64-10.36-23.68-29.6S684,422.47,700.3,426.91Z"
     id="path856"
     style="fill:#000000;fill-opacity:1" />
  <path
     class="cls-1"
     d="M603.93,565.62q1.59-.15,3.36-.15c6.58,0,14.89,1.58,23.58,4.12a243.78,243.78,0,0,1,38,15.14c5.49,2.73,10.25,5.34,13.77,7.49,1.76,1.07,3.21,2,4.25,2.8.51.38.93.72,1.22,1,.14.13.25.23.32.31l.07.07h0l.26-.2-.27.19h0l.26-.2-.27.19c1.09,1.44,2.21,2.74,3,4a9.37,9.37,0,0,1,.86,1.7,4.44,4.44,0,0,1,.27,1.45,4.6,4.6,0,0,1-.63,2.21c-.73,1.4-2.42,3.39-5.71,5.76a87.65,87.65,0,0,1-14.83,8.19c-4.87,2.23-11.91,3.3-20.19,3.29-9.37,0-20.3-1.32-31.61-3.32-17-3-34.81-7.52-49.87-11.31-7.53-1.9-14.37-3.61-20.11-4.86-2.88-.62-5.47-1.13-7.77-1.5a41.18,41.18,0,0,0-6.05-.57,12.94,12.94,0,0,0-2.79.26c-3.17.71-10.29,2-20.19,3.62-29.74,4.84-84.91,12.6-139.15,17-11.43.93-21.87,1.36-31.33,1.36-25,0-43.3-3-55.18-7.65-5.94-2.29-10.26-5-13.07-7.67s-4.14-5.37-4.49-8a14.1,14.1,0,0,1-.12-1.84,23,23,0,0,1,3.37-11c3.35-6,9.18-12.26,16.47-18a119.13,119.13,0,0,1,25.14-15.05l-3-6.76c-12.9,5.72-25,13.63-34.06,22.41a63.09,63.09,0,0,0-11,13.78,30.17,30.17,0,0,0-4.33,14.67,21.66,21.66,0,0,0,.18,2.79A21,21,0,0,0,269,613.67a41.14,41.14,0,0,0,10.85,7.22c6.61,3.16,15,5.68,25.4,7.43a225.09,225.09,0,0,0,37.12,2.73c9.69,0,20.32-.44,31.93-1.39,36.36-3,73.05-7.41,102.33-11.49,14.64-2,27.43-4,37.41-5.61s17.11-2.92,20.6-3.69a5.17,5.17,0,0,1,1.19-.09,43.29,43.29,0,0,1,7.11.86c5.46,1,12.84,2.79,21.32,4.92,12.72,3.18,27.92,7.12,43.19,10.26s30.61,5.51,43.79,5.52c8.88,0,16.82-1.05,23.25-4,9.41-4.28,15.53-8,19.54-11.69a20.88,20.88,0,0,0,4.47-5.51,12,12,0,0,0,1.5-5.69,11.73,11.73,0,0,0-.7-3.93,18.26,18.26,0,0,0-2.46-4.48c-.9-1.24-1.79-2.3-2.42-3.15a11.81,11.81,0,0,0-1.94-1.93,52.76,52.76,0,0,0-5.52-3.81c-4-2.48-9.42-5.45-15.69-8.53a262.77,262.77,0,0,0-32-13.21,155.49,155.49,0,0,0-16.66-4.58,76.51,76.51,0,0,0-15.31-1.8c-1.39,0-2.74.06-4.06.19l.7,7.36Z"
     id="path858"
     style="fill:#000000;fill-opacity:1" />
  <path
     class="cls-1"
     d="M330.62,571.15s-35.84,3.76-38.8,14.12-1.48,22.2,16.28,20.72,36-18.73,57.23-14.54S330.62,571.15,330.62,571.15Z"
     id="path860"
     style="fill:#000000;fill-opacity:1" />
  <path
     class="cls-1"
     d="M558.31,582.93s20.63-2.1,28,2.34,59.2,35.52,68.08,28.12,8.88-20.72,0-26.64-48.64-19.06-64.28-16.93S558.31,582.93,558.31,582.93Z"
     id="path862"
     style="fill:#000000;fill-opacity:1" />
</svg>
